<svg xmlns="http://www.w3.org/2000/svg" width="600" height="600" viewBox="0 0 600 600">
  <!-- Frontend Development Icon -->
  <g id="frontend-dev" transform="translate(100, 100)">
    <rect x="-40" y="-40" width="80" height="80" rx="8" fill="#e0e7ff" stroke="#4f46e5" stroke-width="2"/>
    <path d="M-20,-5 L-5,-5 L-5,-20 M5,-20 L5,-5 L20,-5 M20,5 L5,5 L5,20 M-5,20 L-5,5 L-20,5" stroke="#4f46e5" stroke-width="3" fill="none"/>
  </g>
  
  <!-- Backend Development Icon -->
  <g id="backend-dev" transform="translate(300, 100)">
    <rect x="-40" y="-40" width="80" height="80" rx="8" fill="#e0e7ff" stroke="#4f46e5" stroke-width="2"/>
    <rect x="-25" y="-15" width="50" height="10" rx="2" fill="#4f46e5"/>
    <rect x="-25" y="0" width="50" height="10" rx="2" fill="#4f46e5"/>
    <rect x="-25" y="15" width="50" height="10" rx="2" fill="#4f46e5"/>
  </g>
  
  <!-- Mobile App Development Icon -->
  <g id="mobile-dev" transform="translate(500, 100)">
    <rect x="-40" y="-40" width="80" height="80" rx="8" fill="#e0e7ff" stroke="#4f46e5" stroke-width="2"/>
    <rect x="-15" y="-30" width="30" height="60" rx="5" fill="none" stroke="#4f46e5" stroke-width="2"/>
    <circle cx="0" cy="20" r="5" fill="#4f46e5"/>
  </g>
  
  <!-- Cloud Services Icon -->
  <g id="cloud-services" transform="translate(100, 300)">
    <rect x="-40" y="-40" width="80" height="80" rx="8" fill="#e0e7ff" stroke="#4f46e5" stroke-width="2"/>
    <path d="M0,-20 C-20,-20 -20,0 0,0 C0,15 15,15 15,0 C30,0 30,-20 15,-20 Z" fill="#4f46e5"/>
    <path d="M-10,10 L10,10 M0,10 L0,25 M-10,25 L10,25" stroke="#4f46e5" stroke-width="2"/>
  </g>
  
  <!-- Data Analytics Icon -->
  <g id="data-analytics" transform="translate(300, 300)">
    <rect x="-40" y="-40" width="80" height="80" rx="8" fill="#e0e7ff" stroke="#4f46e5" stroke-width="2"/>
    <path d="M-25,25 L-25,10 L-5,10 L-5,25 M-15,25 L-15,-5 L5,-5 L5,25 M15,25 L15,-20 L25,-20 L25,25" fill="none" stroke="#4f46e5" stroke-width="2"/>
  </g>
  
  <!-- Consulting Services Icon -->
  <g id="consulting" transform="translate(500, 300)">
    <rect x="-40" y="-40" width="80" height="80" rx="8" fill="#e0e7ff" stroke="#4f46e5" stroke-width="2"/>
    <circle cx="-15" cy="-15" r="10" fill="#4f46e5"/>
    <circle cx="15" cy="-15" r="10" fill="#4f46e5"/>
    <path d="M-20,10 C-20,25 20,25 20,10" fill="none" stroke="#4f46e5" stroke-width="3" stroke-linecap="round"/>
  </g>
  
  <!-- System Integration Icon -->
  <g id="system-integration" transform="translate(100, 500)">
    <rect x="-40" y="-40" width="80" height="80" rx="8" fill="#e0e7ff" stroke="#4f46e5" stroke-width="2"/>
    <circle cx="-15" cy="-15" r="10" fill="none" stroke="#4f46e5" stroke-width="2"/>
    <circle cx="15" cy="15" r="10" fill="none" stroke="#4f46e5" stroke-width="2"/>
    <path d="M-8,-8 L8,8" stroke="#4f46e5" stroke-width="2"/>
  </g>
  
  <!-- AI Services Icon -->
  <g id="ai-services" transform="translate(300, 500)">
    <rect x="-40" y="-40" width="80" height="80" rx="8" fill="#e0e7ff" stroke="#4f46e5" stroke-width="2"/>
    <circle cx="0" cy="0" r="20" fill="none" stroke="#4f46e5" stroke-width="2"/>
    <path d="M-15,-15 L15,15 M-15,15 L15,-15" stroke="#4f46e5" stroke-width="2"/>
  </g>
  
  <!-- Security Services Icon -->
  <g id="security-services" transform="translate(500, 500)">
    <rect x="-40" y="-40" width="80" height="80" rx="8" fill="#e0e7ff" stroke="#4f46e5" stroke-width="2"/>
    <path d="M0,-20 L-20,0 L0,20 L20,0 Z" fill="none" stroke="#4f46e5" stroke-width="2"/>
    <circle cx="0" cy="0" r="10" fill="#4f46e5"/>
  </g>
</svg>